{"title":"Watchmen - 2009 DVDrip oddball-ENG","uid":5070126,"size":1321234269,"categoryP":"video","categoryS":"movies","magnet":"?xt=urn:btih:c9339870bbb993ed1a06cf473eb127b49912fe2e&amp;dn=Watchmen+-+2009+DVDrip+oddball-ENG&amp;tr=udp%3A%2F%2Ftracker.openbittorrent.com%3A80&amp;tr=udp%3A%2F%2Fopen.demonii.com%3A1337&amp;tr=udp%3A%2F%2Ftracker.coppersurfer.tk%3A6969&amp;tr=udp%3A%2F%2Fexodus.desync.com%3A6969","seeders":0,"leechers":0,"uploader":"oddball-links","files":-1,"time":1251324972,"description":"                           888      888 888               888 888 \n                           888      888 888               888 888 \n                           888      888 888               888 888 \n              .d88b.   .d88888  .d88888 88888b.   8888b.  888 888 \n             d88&quot;&quot;88b d88&quot; 888 d88&quot; 888 888 &quot;88b     &quot;88b 888 888 \n             888  888 888  888 888  888 888  888 .d888888 888 888 \n             Y88..88P Y88b 888 Y88b 888 888 d88P 888  888 888 888 \n              &quot;Y88P&quot;   &quot;Y88888  &quot;Y88888 88888P&quot;  &quot;Y888888 888 888 \n                                       -links.com \n\nWatchmen is a 2009 superhero film directed by Zack Snyder and starring Malin Akerman, Billy Crudup, Matthew Goode, Jackie Earle Haley, Jeffrey Dean Morgan and Patrick Wilson. It is an adaptation of the comic book of the same name by Alan Moore and Dave Gibbons. Set in an alternate-history 1985, tensions heighten between the United States and the Soviet Union as a group of former vigilantes investigates an apparent conspiracy against them and uncovers something even more grandiose and sinister.\n\nScreen Shots\n &lt;a href=&quot;\nhttp://i724.photobucket.com/albums/ww246/oddball-links/watchmen/8.jpg&quot; rel=&quot;nofollow&quot; target=&quot;_NEW&quot;&gt;\nhttp://i724.photobucket.com/albums/ww246/oddball-links/watchmen/8.jpg&lt;/a&gt;\n &lt;a href=&quot;\nhttp://i724.photobucket.com/albums/ww246/oddball-links/watchmen/4.jpg&quot; rel=&quot;nofollow&quot; target=&quot;_NEW&quot;&gt;\nhttp://i724.photobucket.com/albums/ww246/oddball-links/watchmen/4.jpg&lt;/a&gt;\n &lt;a href=&quot;\nhttp://i724.photobucket.com/albums/ww246/oddball-links/watchmen/3.jpg&quot; rel=&quot;nofollow&quot; target=&quot;_NEW&quot;&gt;\nhttp://i724.photobucket.com/albums/ww246/oddball-links/watchmen/3.jpg&lt;/a&gt;\n &lt;a href=&quot;\nhttp://i724.photobucket.com/albums/ww246/oddball-links/watchmen/2.jpg&quot; rel=&quot;nofollow&quot; target=&quot;_NEW&quot;&gt;\nhttp://i724.photobucket.com/albums/ww246/oddball-links/watchmen/2.jpg&lt;/a&gt;\n &lt;a href=&quot;\nhttp://i724.photobucket.com/albums/ww246/oddball-links/watchmen/1.jpg&quot; rel=&quot;nofollow&quot; target=&quot;_NEW&quot;&gt;\nhttp://i724.photobucket.com/albums/ww246/oddball-links/watchmen/1.jpg&lt;/a&gt;\n\nGeneral\nComplete name                    : Watchmen \nFormat                           : AVI\nFormat/Info                      : Audio Video Interleave\nFile size                        : 1.23 GiB\nDuration                         : 2h 35mn\nOverall bit rate                 : 1 134 Kbps\n\nVideo\nFormat                           : MPEG-4 Visual\nFormat profile                   : Streaming Video@L1\nFormat settings, BVOP            : Yes\nFormat settings, QPel            : No\nFormat settings, GMC             : No warppoints\nFormat settings, Matrix          : Default\nMuxing mode                      : Packed bitstream\nCodec ID                         : XVID\nCodec ID/Hint                    : XviD\nDuration                         : 2h 35mn\nBit rate                         : 930 Kbps\nWidth                            : 1 024 pixels\nHeight                           : 582 pixels\nDisplay aspect ratio             : 16/9\nFrame rate                       : 29.970 fps\nResolution                       : 24 bits\nColorimetry                      : 4:2:0\nScan type                        : Progressive\nBits/(Pixel*Frame)               : 0.052\nStream size                      : 1.01 GiB (82%)\nWriting library                  : XviD 1.1.0 (UTC 2005-11-22)\n\nAudio\nFormat                           : MPEG Audio\nFormat version                   : Version 1\nFormat profile                   : Layer 3\nCodec ID                         : 55\nCodec ID/Hint                    : MP3\nDuration                         : 2h 35mn\nBit rate mode                    : Constant\nBit rate                         : 192 Kbps\nChannel(s)                       : 2 channels\nSampling rate                    : 44.1 KHz\nResolution                       : 16 bits\nVideo delay                      : 26ms\nStream size                      : 213 MiB (17%)\nAlignment                        : Split accross interleaves\nInterleave, duration             : 33 ms (1.00 video frame)\nTitle                            : Audio Stream\nWriting library                  : LAME3.92\n\n\nFor more oddball torrents &lt;a href=&quot; http://thepiratebay.se/user/oddball-links&quot; rel=&quot;nofollow&quot; target=&quot;_NEW&quot;&gt; http://thepiratebay.se/user/oddball-links&lt;/a&gt; `                                                                                                            Please seed after downloading `                                                                                            :::===  :::===== :::===== :::====       :::= === :::====  :::====\n        :::     :::      :::      :::  ===      :::===== :::  === :::====\n         =====  ======   ======   ===  ===      ======== ===  ===   ===  \n            === ===      ===      ===  ===      === ==== ===  ===   ===  \n        ======  ======== ======== =======       ===  ===  ======    ===  \n                                                                         \n                  :::=====  :::====  :::===== :::===== :::==== \n                  :::       :::  === :::      :::      :::  ===\n                  === ===== =======  ======   ======   ===  ===\n                  ===   === === ===  ===      ===      ===  ===\n                   =======  ===  === ======== ======== =======\t","torrent":{"xt":"urn:btih:c9339870bbb993ed1a06cf473eb127b49912fe2e","amp;dn":"Watchmen+-+2009+DVDrip+oddball-ENG","amp;tr":["udp%3A%2F%2Ftracker.openbittorrent.com%3A80","udp%3A%2F%2Fopen.demonii.com%3A1337","udp%3A%2F%2Ftracker.coppersurfer.tk%3A6969","udp%3A%2F%2Fexodus.desync.com%3A6969"],"infoHash":"c9339870bbb993ed1a06cf473eb127b49912fe2e","infoHashBuffer":{"type":"Buffer","data":[201,51,152,112,187,185,147,237,26,6,207,71,62,177,39,180,153,18,254,46]},"announce":[],"urlList":[]}}